<?xml version="1.0" encoding="utf-8"?>
<!-- Generator: Adobe Illustrator 21.1.0, SVG Export Plug-In . SVG Version: 6.00 Build 0)  -->
<svg version="1.1" id="Capa_1" xmlns="http://www.w3.org/2000/svg" xmlns:xlink="http://www.w3.org/1999/xlink" x="0px" y="0px"
	 viewBox="0 0 359.2 359.2" style="enable-background:new 0 0 359.2 359.2;" xml:space="preserve">
<g>
	<g>
		<path d="M157.4,351.7c46.5-0.6,95.5-6.7,140.8-19c9.8-3.1,6.1-17.7-4.3-15.3c-40.4,9.8-81.4,15.9-123,17.7
			c-41.6,1.8-97.3,2.4-129.7-27.5C24.6,292.3,25.3,264.8,24,244c-1.8-30.6-1.2-61.8,0.6-92.4c1.2-30.6,4.3-61.8,8-92.4
			c1.8-16.5,11-43.5,3.1-58.1c-0.6-1.2-2.4-1.2-3.1-0.6c-14.1,11-13.5,42.2-15.9,58.8C11.8,95.9,9.3,132,7.5,168.7
			c-1.8,44.7-11,114.4,22.6,149.9C59.5,351.1,117.1,351.7,157.4,351.7z"/>
		<path d="M350.2,338.2c6.1-4.3,4.9-11.6-1.8-14.7c-20.8-8.6-39.8-22-60.6-30.6c-6.1-2.4-9.2,6.7-4.3,9.8
			c15.9,9.8,31.8,19,47.7,28.8c-4.9,2.4-9.8,4.9-14.7,7.3c-8,3.1-15.9,3.7-23.3,7.3c-5.5,2.4-3.1,9.8,1.2,11.6
			C311.7,363.9,336.1,348,350.2,338.2z"/>
	</g>
</g>
</svg>
